<svg width="99" height="99" viewBox="0 0 99 99" fill="none" xmlns="http://www.w3.org/2000/svg">
<rect width="99" height="99" fill="#6A2BC2"/>
<path d="M61.6381 68.328C61.6381 70.632 61.0621 72.744 59.9101 74.664C58.7581 76.584 57.2221 78.12 55.3021 79.272C53.3821 80.424 51.2701 81 48.9661 81H31.6861C29.3821 81 27.2381 80.424 25.2541 79.272C23.3341 78.12 21.7981 76.584 20.6461 74.664C19.4941 72.744 18.9181 70.632 18.9181 68.328V28.872C18.9181 26.504 19.4941 24.36 20.6461 22.44C21.7981 20.52 23.3341 18.984 25.2541 17.832C27.2381 16.68 29.3821 16.104 31.6861 16.104H48.9661C51.2701 16.104 53.3821 16.68 55.3021 17.832C57.2221 18.984 58.7581 20.52 59.9101 22.44C61.0621 24.36 61.6381 26.504 61.6381 28.872V31.464C61.6381 32.68 61.2221 33.704 60.3901 34.536C59.5581 35.368 58.5021 35.784 57.2221 35.784H54.6301C53.4141 35.784 52.3581 35.368 51.4621 34.536C50.6301 33.704 50.2141 32.68 50.2141 31.464V28.872C50.2141 27.976 49.7981 27.528 48.9661 27.528H31.6861C30.8541 27.528 30.4381 27.976 30.4381 28.872V68.328C30.4381 68.648 30.5661 68.968 30.8221 69.288C31.0781 69.544 31.3661 69.672 31.6861 69.672H48.9661C49.2861 69.672 49.5741 69.544 49.8301 69.288C50.0861 68.968 50.2141 68.648 50.2141 68.328V65.448C50.2141 64.232 50.6301 63.208 51.4621 62.376C52.3581 61.48 53.4141 61.032 54.6301 61.032H57.2221C58.5021 61.032 59.5581 61.48 60.3901 62.376C61.2221 63.208 61.6381 64.232 61.6381 65.448V68.328ZM83.8494 73.8C83.8494 75.784 83.1134 77.48 81.6414 78.888C80.2334 80.296 78.5374 81 76.5534 81C74.6334 81 72.9374 80.296 71.4654 78.888C70.0574 77.48 69.3534 75.784 69.3534 73.8C69.3534 71.816 70.0574 70.12 71.4654 68.712C72.9374 67.304 74.6334 66.6 76.5534 66.6C78.5374 66.6 80.2334 67.304 81.6414 68.712C83.1134 70.12 83.8494 71.816 83.8494 73.8Z" fill="black"/>
</svg>
