<svg width="292" height="81" viewBox="0 0 292 81" fill="none" xmlns="http://www.w3.org/2000/svg">
<rect width="292" height="81" fill="#6A2BC2"/>
<path d="M52.0406 52.72C52.0406 53.68 51.8006 54.56 51.3206 55.36C50.8406 56.16 50.2006 56.8 49.4006 57.28C48.6006 57.76 47.7206 58 46.7606 58H39.5606C38.6006 58 37.7073 57.76 36.8806 57.28C36.0806 56.8 35.4406 56.16 34.9606 55.36C34.4806 54.56 34.2406 53.68 34.2406 52.72V36.28C34.2406 35.2933 34.4806 34.4 34.9606 33.6C35.4406 32.8 36.0806 32.16 36.8806 31.68C37.7073 31.2 38.6006 30.96 39.5606 30.96H46.7606C47.7206 30.96 48.6006 31.2 49.4006 31.68C50.2006 32.16 50.8406 32.8 51.3206 33.6C51.8006 34.4 52.0406 35.2933 52.0406 36.28V37.36C52.0406 37.8667 51.8673 38.2933 51.5206 38.64C51.174 38.9867 50.734 39.16 50.2006 39.16H49.1206C48.614 39.16 48.174 38.9867 47.8006 38.64C47.454 38.2933 47.2806 37.8667 47.2806 37.36V36.28C47.2806 35.9067 47.1073 35.72 46.7606 35.72H39.5606C39.214 35.72 39.0406 35.9067 39.0406 36.28V52.72C39.0406 52.8533 39.094 52.9867 39.2006 53.12C39.3073 53.2267 39.4273 53.28 39.5606 53.28H46.7606C46.894 53.28 47.014 53.2267 47.1206 53.12C47.2273 52.9867 47.2806 52.8533 47.2806 52.72V51.52C47.2806 51.0133 47.454 50.5867 47.8006 50.24C48.174 49.8667 48.614 49.68 49.1206 49.68H50.2006C50.734 49.68 51.174 49.8667 51.5206 50.24C51.8673 50.5867 52.0406 51.0133 52.0406 51.52V52.72ZM67.1753 40.24C67.1753 40.7467 67.002 41.1733 66.6553 41.52C66.3086 41.8667 65.882 42.04 65.3753 42.04H60.6153C60.2686 42.04 60.0953 42.2267 60.0953 42.6V56.16C60.0953 56.6667 59.9086 57.1067 59.5353 57.48C59.1886 57.8267 58.762 58 58.2553 58H57.1353C56.6286 58 56.202 57.8267 55.8553 57.48C55.5086 57.1067 55.3353 56.6667 55.3353 56.16V41.76C55.3353 40.9333 55.5353 40.1867 55.9353 39.52C56.3353 38.8267 56.8686 38.28 57.5353 37.88C58.202 37.48 58.9486 37.28 59.7753 37.28H65.3753C65.882 37.28 66.3086 37.4667 66.6553 37.84C67.002 38.1867 67.1753 38.6267 67.1753 39.16V40.24ZM88.7325 52.72C88.7325 53.68 88.4925 54.56 88.0125 55.36C87.5325 56.16 86.8925 56.8 86.0925 57.28C85.2925 57.76 84.4125 58 83.4525 58H75.7725C74.8125 58 73.9192 57.76 73.0925 57.28C72.2925 56.8 71.6525 56.16 71.1725 55.36C70.6925 54.56 70.4525 53.68 70.4525 52.72V46.88C70.4525 46.4267 70.5058 45.9867 70.6125 45.56C70.7192 45.1333 70.8658 44.7467 71.0525 44.4C71.2658 44.1067 71.2658 43.8133 71.0525 43.52C70.8658 43.12 70.7192 42.72 70.6125 42.32C70.5058 41.8933 70.4525 41.4667 70.4525 41.04V36.28C70.4525 35.2933 70.6925 34.4 71.1725 33.6C71.6525 32.8 72.2925 32.16 73.0925 31.68C73.9192 31.2 74.8125 30.96 75.7725 30.96H83.4525C84.4125 30.96 85.2925 31.2 86.0925 31.68C86.8925 32.16 87.5325 32.8 88.0125 33.6C88.4925 34.4 88.7325 35.2933 88.7325 36.28V41.04C88.7325 41.44 88.6792 41.8533 88.5725 42.28C88.4658 42.7067 88.3192 43.1067 88.1325 43.48C87.9192 43.8 87.9192 44.1067 88.1325 44.4C88.3192 44.7467 88.4658 45.1333 88.5725 45.56C88.6792 45.9867 88.7325 46.4267 88.7325 46.88V52.72ZM83.9725 41.04V36.28C83.9725 35.9067 83.7992 35.72 83.4525 35.72H75.7725C75.6392 35.72 75.5058 35.7733 75.3725 35.88C75.2658 35.9867 75.2125 36.12 75.2125 36.28V41.04C75.2125 41.1733 75.2658 41.2933 75.3725 41.4C75.5058 41.5067 75.6392 41.56 75.7725 41.56H83.4525C83.7992 41.56 83.9725 41.3867 83.9725 41.04ZM83.9725 52.72V46.88C83.9725 46.5067 83.7992 46.32 83.4525 46.32H75.7725C75.6392 46.32 75.5058 46.3733 75.3725 46.48C75.2658 46.5867 75.2125 46.72 75.2125 46.88V52.72C75.2125 52.8533 75.2658 52.9867 75.3725 53.12C75.5058 53.2267 75.6392 53.28 75.7725 53.28H83.4525C83.5858 53.28 83.7058 53.2267 83.8125 53.12C83.9192 52.9867 83.9725 52.8533 83.9725 52.72ZM98.015 33.52C98.015 34.3467 97.7083 35.0667 97.095 35.68C96.5083 36.2667 95.815 36.56 95.015 36.56C94.1883 36.56 93.4683 36.2667 92.855 35.68C92.2683 35.0667 91.975 34.3467 91.975 33.52C91.975 32.72 92.2683 32.0267 92.855 31.44C93.4683 30.8267 94.1883 30.52 95.015 30.52C95.815 30.52 96.5083 30.8267 97.095 31.44C97.7083 32.0267 98.015 32.72 98.015 33.52ZM97.375 56.16C97.375 56.6667 97.1883 57.1067 96.815 57.48C96.4683 57.8267 96.0417 58 95.535 58H94.455C93.9483 58 93.5083 57.8267 93.135 57.48C92.7883 57.1067 92.615 56.6667 92.615 56.16V39.56C92.615 39.0533 92.7883 38.6267 93.135 38.28C93.5083 37.9067 93.9483 37.72 94.455 37.72H95.535C96.0417 37.72 96.4683 37.9067 96.815 38.28C97.1883 38.6267 97.375 39.0533 97.375 39.56V56.16ZM115.953 39.64L110.993 56.68C110.886 57.0533 110.659 57.3733 110.313 57.64C109.993 57.88 109.619 58 109.193 58H108.113C107.686 58 107.313 57.88 106.993 57.64C106.673 57.3733 106.446 57.0533 106.313 56.68L101.353 39.64C101.166 39.0267 101.246 38.4933 101.593 38.04C102.019 37.5333 102.513 37.28 103.073 37.28H104.233C104.659 37.28 105.033 37.4133 105.353 37.68C105.673 37.92 105.886 38.24 105.993 38.64L108.473 47.04C108.499 47.1467 108.553 47.2 108.633 47.2C108.739 47.2 108.806 47.1467 108.833 47.04L111.313 38.64C111.446 38.24 111.659 37.92 111.953 37.68C112.273 37.4133 112.646 37.28 113.073 37.28H114.233C114.819 37.28 115.299 37.5333 115.673 38.04C116.019 38.52 116.113 39.0533 115.953 39.64ZM133.76 46.12C133.76 46.92 133.56 47.6667 133.16 48.36C132.76 49.0267 132.226 49.5733 131.56 50C130.893 50.4 130.146 50.6 129.32 50.6H124.6C124.466 50.6 124.333 50.6533 124.2 50.76C124.093 50.84 124.04 50.9467 124.04 51.08V52.76C124.04 52.8933 124.093 53.0133 124.2 53.12C124.333 53.2267 124.466 53.28 124.6 53.28H129.32C129.826 53.28 130.253 53.4533 130.6 53.8C130.973 54.1467 131.16 54.5867 131.16 55.12V56.16C131.16 56.6667 130.973 57.1067 130.6 57.48C130.253 57.8267 129.826 58 129.32 58H123.76C122.533 58 121.48 57.5733 120.6 56.72C119.72 55.84 119.28 54.7733 119.28 53.52V41.76C119.28 40.9333 119.48 40.1867 119.88 39.52C120.306 38.8533 120.853 38.32 121.52 37.92C122.186 37.4933 122.933 37.28 123.76 37.28H129.32C130.146 37.28 130.893 37.4933 131.56 37.92C132.226 38.32 132.76 38.8533 133.16 39.52C133.56 40.1867 133.76 40.9333 133.76 41.76V46.12ZM129.04 45.32V42.6C129.04 42.44 128.973 42.3067 128.84 42.2C128.733 42.0933 128.613 42.04 128.48 42.04H124.6C124.466 42.04 124.333 42.0933 124.2 42.2C124.093 42.3067 124.04 42.44 124.04 42.6V45.32C124.04 45.4267 124.093 45.5333 124.2 45.64C124.333 45.7467 124.466 45.8 124.6 45.8H128.48C128.613 45.8 128.733 45.7467 128.84 45.64C128.973 45.5333 129.04 45.4267 129.04 45.32ZM154.814 52.72C154.814 53.68 154.574 54.56 154.094 55.36C153.614 56.16 152.974 56.8 152.174 57.28C151.374 57.76 150.494 58 149.534 58H142.334C141.374 58 140.481 57.76 139.654 57.28C138.854 56.8 138.214 56.16 137.734 55.36C137.254 54.56 137.014 53.68 137.014 52.72V36.28C137.014 35.2933 137.254 34.4 137.734 33.6C138.214 32.8 138.854 32.16 139.654 31.68C140.481 31.2 141.374 30.96 142.334 30.96H149.534C150.494 30.96 151.374 31.2 152.174 31.68C152.974 32.16 153.614 32.8 154.094 33.6C154.574 34.4 154.814 35.2933 154.814 36.28V37.36C154.814 37.8667 154.641 38.2933 154.294 38.64C153.947 38.9867 153.507 39.16 152.974 39.16H151.894C151.387 39.16 150.947 38.9867 150.574 38.64C150.227 38.2933 150.054 37.8667 150.054 37.36V36.28C150.054 35.9067 149.881 35.72 149.534 35.72H142.334C141.987 35.72 141.814 35.9067 141.814 36.28V52.72C141.814 52.8533 141.867 52.9867 141.974 53.12C142.081 53.2267 142.201 53.28 142.334 53.28H149.534C149.667 53.28 149.787 53.2267 149.894 53.12C150.001 52.9867 150.054 52.8533 150.054 52.72V51.52C150.054 51.0133 150.227 50.5867 150.574 50.24C150.947 49.8667 151.387 49.68 151.894 49.68H152.974C153.507 49.68 153.947 49.8667 154.294 50.24C154.641 50.5867 154.814 51.0133 154.814 51.52V52.72ZM172.549 53.52C172.549 54.7733 172.109 55.84 171.229 56.72C170.375 57.5733 169.335 58 168.109 58H162.549C161.322 58 160.269 57.5733 159.389 56.72C158.509 55.84 158.069 54.7733 158.069 53.52V41.76C158.069 40.9333 158.269 40.1867 158.669 39.52C159.095 38.8267 159.642 38.28 160.309 37.88C160.975 37.48 161.722 37.28 162.549 37.28H168.109C168.935 37.28 169.682 37.48 170.349 37.88C171.015 38.28 171.549 38.8267 171.949 39.52C172.349 40.1867 172.549 40.9333 172.549 41.76V53.52ZM167.829 52.76V42.6C167.829 42.44 167.762 42.3067 167.629 42.2C167.522 42.0933 167.402 42.04 167.269 42.04H163.389C163.255 42.04 163.122 42.0933 162.989 42.2C162.882 42.3067 162.829 42.44 162.829 42.6V52.76C162.829 52.8933 162.882 53.0133 162.989 53.12C163.122 53.2267 163.255 53.28 163.389 53.28H167.269C167.402 53.28 167.522 53.2267 167.629 53.12C167.762 53.0133 167.829 52.8933 167.829 52.76ZM190.283 53.52C190.283 54.7733 189.843 55.84 188.963 56.72C188.11 57.5733 187.07 58 185.843 58H180.283C179.056 58 178.003 57.5733 177.123 56.72C176.243 55.84 175.803 54.7733 175.803 53.52V51.88C175.803 51.3733 175.976 50.9467 176.323 50.6C176.696 50.2267 177.136 50.04 177.643 50.04H178.763C179.27 50.04 179.696 50.2267 180.043 50.6C180.39 50.9467 180.563 51.3733 180.563 51.88V52.76C180.563 53.1067 180.75 53.28 181.123 53.28H185.003C185.136 53.28 185.256 53.2267 185.363 53.12C185.496 53.0133 185.563 52.8933 185.563 52.76V51.28C185.563 51.0667 185.456 50.92 185.243 50.84L179.443 49C178.376 48.6267 177.496 47.9867 176.803 47.08C176.136 46.1733 175.803 45.1467 175.803 44V41.76C175.803 40.9333 176.003 40.1867 176.403 39.52C176.83 38.8533 177.376 38.32 178.043 37.92C178.71 37.4933 179.456 37.28 180.283 37.28H185.843C186.67 37.28 187.416 37.4933 188.083 37.92C188.75 38.32 189.283 38.8533 189.683 39.52C190.083 40.1867 190.283 40.9333 190.283 41.76V43.36C190.283 43.8667 190.11 44.3067 189.763 44.68C189.416 45.0267 188.99 45.2 188.483 45.2H187.363C186.856 45.2 186.43 45.0267 186.083 44.68C185.736 44.3067 185.563 43.8667 185.563 43.36V42.6C185.563 42.44 185.496 42.3067 185.363 42.2C185.256 42.0933 185.136 42.04 185.003 42.04H181.123C180.75 42.04 180.563 42.2267 180.563 42.6V44C180.563 44.2667 180.67 44.4267 180.883 44.48L186.683 46.32C187.776 46.6667 188.643 47.2933 189.283 48.2C189.95 49.1067 190.283 50.1333 190.283 51.28V53.52ZM213.018 56.16C213.018 56.6667 212.831 57.1067 212.458 57.48C212.111 57.8267 211.684 58 211.178 58H210.058C209.551 58 209.111 57.8267 208.738 57.48C208.391 57.1067 208.218 56.6667 208.218 56.16V42.6C208.218 42.2267 208.044 42.04 207.698 42.04H206.138C205.818 42.04 205.658 42.2267 205.658 42.6V56.16C205.658 56.6667 205.471 57.1067 205.098 57.48C204.751 57.8267 204.324 58 203.818 58H202.738C202.231 58 201.791 57.8267 201.418 57.48C201.071 57.1067 200.898 56.6667 200.898 56.16V42.6C200.898 42.2267 200.738 42.04 200.418 42.04H198.858C198.511 42.04 198.338 42.2267 198.338 42.6V56.16C198.338 56.6667 198.151 57.1067 197.778 57.48C197.431 57.8267 197.004 58 196.498 58H195.378C194.871 58 194.431 57.8267 194.058 57.48C193.711 57.1067 193.538 56.6667 193.538 56.16V41.76C193.538 40.9333 193.738 40.1867 194.138 39.52C194.564 38.8267 195.111 38.28 195.778 37.88C196.444 37.48 197.191 37.28 198.018 37.28H201.178C201.764 37.28 202.298 37.4 202.778 37.64C203.098 37.72 203.431 37.72 203.778 37.64C204.258 37.4 204.791 37.28 205.378 37.28H208.538C209.364 37.28 210.111 37.48 210.778 37.88C211.444 38.28 211.978 38.8267 212.378 39.52C212.804 40.1867 213.018 40.9333 213.018 41.76V56.16ZM222.273 33.52C222.273 34.3467 221.966 35.0667 221.353 35.68C220.766 36.2667 220.073 36.56 219.273 36.56C218.446 36.56 217.726 36.2667 217.113 35.68C216.526 35.0667 216.233 34.3467 216.233 33.52C216.233 32.72 216.526 32.0267 217.113 31.44C217.726 30.8267 218.446 30.52 219.273 30.52C220.073 30.52 220.766 30.8267 221.353 31.44C221.966 32.0267 222.273 32.72 222.273 33.52ZM221.633 56.16C221.633 56.6667 221.446 57.1067 221.073 57.48C220.726 57.8267 220.299 58 219.793 58H218.713C218.206 58 217.766 57.8267 217.393 57.48C217.046 57.1067 216.873 56.6667 216.873 56.16V39.56C216.873 39.0533 217.046 38.6267 217.393 38.28C217.766 37.9067 218.206 37.72 218.713 37.72H219.793C220.299 37.72 220.726 37.9067 221.073 38.28C221.446 38.6267 221.633 39.0533 221.633 39.56V56.16ZM239.971 53.52C239.971 54.7733 239.531 55.84 238.651 56.72C237.797 57.5733 236.757 58 235.531 58H229.971C228.744 58 227.691 57.5733 226.811 56.72C225.931 55.84 225.491 54.7733 225.491 53.52V41.76C225.491 40.9333 225.691 40.1867 226.091 39.52C226.517 38.8267 227.064 38.28 227.731 37.88C228.397 37.48 229.144 37.28 229.971 37.28H235.531C236.357 37.28 237.104 37.48 237.771 37.88C238.437 38.28 238.971 38.8267 239.371 39.52C239.771 40.1867 239.971 40.9333 239.971 41.76V43.84C239.971 44.3467 239.797 44.7867 239.451 45.16C239.104 45.5067 238.677 45.68 238.171 45.68H237.051C236.544 45.68 236.117 45.5067 235.771 45.16C235.424 44.7867 235.251 44.3467 235.251 43.84V42.6C235.251 42.44 235.184 42.3067 235.051 42.2C234.944 42.0933 234.824 42.04 234.691 42.04H230.811C230.677 42.04 230.544 42.0933 230.411 42.2C230.304 42.3067 230.251 42.44 230.251 42.6V52.76C230.251 52.8933 230.304 53.0133 230.411 53.12C230.544 53.2267 230.677 53.28 230.811 53.28H234.691C234.824 53.28 234.944 53.2267 235.051 53.12C235.184 53.0133 235.251 52.8933 235.251 52.76V51.52C235.251 51.0133 235.424 50.5867 235.771 50.24C236.117 49.8667 236.544 49.68 237.051 49.68H238.171C238.677 49.68 239.104 49.8667 239.451 50.24C239.797 50.5867 239.971 51.0133 239.971 51.52V53.52ZM257.705 53.52C257.705 54.7733 257.265 55.84 256.385 56.72C255.532 57.5733 254.492 58 253.265 58H247.705C246.478 58 245.425 57.5733 244.545 56.72C243.665 55.84 243.225 54.7733 243.225 53.52V49.16C243.225 48.3333 243.425 47.6 243.825 46.96C244.252 46.2933 244.798 45.76 245.465 45.36C246.132 44.96 246.878 44.76 247.705 44.76H252.425C252.558 44.76 252.678 44.7067 252.785 44.6C252.918 44.4933 252.985 44.36 252.985 44.2V42.6C252.985 42.44 252.918 42.3067 252.785 42.2C252.678 42.0933 252.558 42.04 252.425 42.04H247.705C247.198 42.04 246.758 41.8667 246.385 41.52C246.038 41.1733 245.865 40.7467 245.865 40.24V39.16C245.865 38.6267 246.038 38.1867 246.385 37.84C246.758 37.4667 247.198 37.28 247.705 37.28H253.265C254.092 37.28 254.838 37.48 255.505 37.88C256.172 38.28 256.705 38.8267 257.105 39.52C257.505 40.1867 257.705 40.9333 257.705 41.76V53.52ZM252.985 52.76V50C252.985 49.8667 252.918 49.7467 252.785 49.64C252.678 49.5333 252.558 49.48 252.425 49.48H248.545C248.412 49.48 248.278 49.5333 248.145 49.64C248.038 49.7467 247.985 49.8667 247.985 50V52.76C247.985 52.8933 248.038 53.0133 248.145 53.12C248.278 53.2267 248.412 53.28 248.545 53.28H252.425C252.558 53.28 252.678 53.2267 252.785 53.12C252.918 53.0133 252.985 52.8933 252.985 52.76Z" fill="black"/>
</svg>
