<svg width="293" height="125" viewBox="0 0 293 125" fill="none" xmlns="http://www.w3.org/2000/svg">
<g filter="url(#filter0_d_10_29)">
<rect x="12" width="269" height="101" rx="23" fill="url(#paint0_linear_10_29)"/>
<rect x="12.5" y="0.5" width="268" height="100" rx="22.5" stroke="black"/>
<rect x="12.5" y="0.5" width="268" height="100" rx="22.5" stroke="black" stroke-opacity="0.2"/>
<rect x="12.5" y="0.5" width="268" height="100" rx="22.5" stroke="black" stroke-opacity="0.2"/>
</g>
<path d="M112.499 59.776C112.499 60.544 112.307 61.248 111.923 61.888C111.539 62.528 111.027 63.04 110.387 63.424C109.747 63.808 109.043 64 108.275 64H102.131C101.363 64 100.648 63.808 99.9865 63.424C99.3465 63.04 98.8345 62.528 98.4505 61.888C98.0665 61.248 97.8745 60.544 97.8745 59.776V58.816C97.8745 58.4107 98.0132 58.0693 98.2905 57.792C98.5892 57.4933 98.9412 57.344 99.3465 57.344H100.243C100.627 57.344 100.957 57.4933 101.235 57.792C101.533 58.0693 101.683 58.4107 101.683 58.816V59.776C101.683 59.8827 101.725 59.9893 101.811 60.096C101.917 60.1813 102.024 60.224 102.131 60.224H108.275C108.381 60.224 108.477 60.1813 108.563 60.096C108.648 59.9893 108.691 59.8827 108.691 59.776V56.864C108.691 56.6293 108.584 56.48 108.371 56.416L100.691 53.536C99.8372 53.2373 99.1545 52.7147 98.6425 51.968C98.1305 51.2213 97.8745 50.4 97.8745 49.504V46.624C97.8745 45.8347 98.0665 45.12 98.4505 44.48C98.8345 43.84 99.3465 43.328 99.9865 42.944C100.648 42.56 101.363 42.368 102.131 42.368H108.275C109.043 42.368 109.747 42.56 110.387 42.944C111.027 43.328 111.539 43.84 111.923 44.48C112.307 45.12 112.499 45.8347 112.499 46.624V47.488C112.499 47.8933 112.349 48.2347 112.051 48.512C111.773 48.7893 111.432 48.928 111.027 48.928H110.163C109.757 48.928 109.405 48.7893 109.107 48.512C108.829 48.2347 108.691 47.8933 108.691 47.488V46.624C108.691 46.3253 108.552 46.176 108.275 46.176H102.131C102.024 46.176 101.917 46.2187 101.811 46.304C101.725 46.3893 101.683 46.496 101.683 46.624V49.504C101.683 49.76 101.789 49.92 102.003 49.984L109.715 52.864C110.547 53.1627 111.219 53.6853 111.731 54.432C112.243 55.1787 112.499 55.9893 112.499 56.864V59.776ZM119.925 44.416C119.925 45.0773 119.679 45.6533 119.189 46.144C118.719 46.6133 118.165 46.848 117.525 46.848C116.863 46.848 116.287 46.6133 115.797 46.144C115.327 45.6533 115.093 45.0773 115.093 44.416C115.093 43.776 115.327 43.2213 115.797 42.752C116.287 42.2613 116.863 42.016 117.525 42.016C118.165 42.016 118.719 42.2613 119.189 42.752C119.679 43.2213 119.925 43.776 119.925 44.416ZM119.413 62.528C119.413 62.9333 119.263 63.2853 118.965 63.584C118.687 63.8613 118.346 64 117.941 64H117.077C116.671 64 116.319 63.8613 116.021 63.584C115.743 63.2853 115.605 62.9333 115.605 62.528V49.248C115.605 48.8427 115.743 48.5013 116.021 48.224C116.319 47.9253 116.671 47.776 117.077 47.776H117.941C118.346 47.776 118.687 47.9253 118.965 48.224C119.263 48.5013 119.413 48.8427 119.413 49.248V62.528ZM134.083 65.536C134.083 66.176 133.923 66.7627 133.603 67.296C133.283 67.8507 132.856 68.288 132.323 68.608C131.789 68.9493 131.192 69.12 130.531 69.12H126.083C125.677 69.12 125.325 68.9707 125.027 68.672C124.749 68.3947 124.611 68.0533 124.611 67.648V66.752C124.611 66.3467 124.749 66.0053 125.027 65.728C125.325 65.4507 125.677 65.312 126.083 65.312H129.859C129.965 65.312 130.061 65.2693 130.147 65.184C130.253 65.0987 130.307 65.0027 130.307 64.896V64.416C130.307 64.3093 130.253 64.2133 130.147 64.128C130.061 64.0427 129.965 64 129.859 64H126.083C125.101 64 124.259 63.6587 123.555 62.976C122.851 62.272 122.499 61.4187 122.499 60.416V51.008C122.499 50.3467 122.659 49.7493 122.979 49.216C123.32 48.6613 123.757 48.224 124.291 47.904C124.824 47.584 125.421 47.424 126.083 47.424H130.531C131.192 47.424 131.789 47.584 132.323 47.904C132.856 48.224 133.283 48.6613 133.603 49.216C133.923 49.7493 134.083 50.3467 134.083 51.008V65.536ZM130.307 59.808V51.68C130.307 51.552 130.253 51.4453 130.147 51.36C130.061 51.2747 129.965 51.232 129.859 51.232H126.755C126.648 51.232 126.541 51.2747 126.435 51.36C126.349 51.4453 126.307 51.552 126.307 51.68V59.808C126.307 59.9147 126.349 60.0107 126.435 60.096C126.541 60.1813 126.648 60.224 126.755 60.224H129.859C129.965 60.224 130.061 60.1813 130.147 60.096C130.253 60.0107 130.307 59.9147 130.307 59.808ZM148.27 62.528C148.27 62.9333 148.132 63.2853 147.854 63.584C147.577 63.8613 147.236 64 146.83 64H145.934C145.529 64 145.188 63.8613 144.91 63.584C144.633 63.2853 144.494 62.9333 144.494 62.528V51.68C144.494 51.552 144.441 51.4453 144.334 51.36C144.249 51.2747 144.153 51.232 144.046 51.232H140.942C140.836 51.232 140.729 51.2747 140.622 51.36C140.537 51.4453 140.494 51.552 140.494 51.68V62.528C140.494 62.9333 140.356 63.2853 140.078 63.584C139.801 63.8613 139.46 64 139.054 64H138.158C137.753 64 137.401 63.8613 137.102 63.584C136.825 63.2853 136.686 62.9333 136.686 62.528V51.008C136.686 50.3467 136.846 49.7493 137.166 49.216C137.508 48.6613 137.945 48.224 138.478 47.904C139.012 47.584 139.609 47.424 140.27 47.424H144.718C145.38 47.424 145.977 47.584 146.51 47.904C147.044 48.224 147.47 48.6613 147.79 49.216C148.11 49.7493 148.27 50.3467 148.27 51.008V62.528ZM172.489 59.776C172.489 60.544 172.297 61.248 171.913 61.888C171.529 62.528 171.017 63.04 170.377 63.424C169.737 63.808 169.033 64 168.265 64H162.505C161.737 64 161.022 63.808 160.361 63.424C159.721 63.04 159.209 62.528 158.825 61.888C158.441 61.248 158.249 60.544 158.249 59.776V43.84C158.249 43.4133 158.387 43.0613 158.665 42.784C158.963 42.5067 159.315 42.368 159.721 42.368H160.617C161.022 42.368 161.363 42.5067 161.641 42.784C161.939 43.0613 162.089 43.4133 162.089 43.84V59.776C162.089 59.8827 162.131 59.9893 162.217 60.096C162.302 60.1813 162.398 60.224 162.505 60.224H168.265C168.371 60.224 168.467 60.1813 168.553 60.096C168.638 59.9893 168.681 59.8827 168.681 59.776V43.84C168.681 43.4133 168.819 43.0613 169.097 42.784C169.395 42.5067 169.747 42.368 170.153 42.368H171.017C171.443 42.368 171.795 42.5067 172.073 42.784C172.35 43.0613 172.489 43.4133 172.489 43.84V59.776ZM186.677 60.416C186.677 61.4187 186.325 62.272 185.621 62.976C184.938 63.6587 184.106 64 183.125 64H179.349C179.242 64 179.135 64.0427 179.029 64.128C178.943 64.2133 178.901 64.3093 178.901 64.416V67.648C178.901 68.0533 178.762 68.3947 178.485 68.672C178.207 68.9707 177.866 69.12 177.461 69.12H176.565C176.159 69.12 175.807 68.9707 175.509 68.672C175.231 68.3947 175.093 68.0533 175.093 67.648V51.008C175.093 50.3467 175.253 49.7493 175.573 49.216C175.914 48.6613 176.351 48.224 176.885 47.904C177.418 47.584 178.015 47.424 178.677 47.424H183.125C183.786 47.424 184.383 47.584 184.917 47.904C185.45 48.224 185.877 48.6613 186.197 49.216C186.517 49.7493 186.677 50.3467 186.677 51.008V60.416ZM182.901 59.808V51.68C182.901 51.552 182.847 51.4453 182.741 51.36C182.655 51.2747 182.559 51.232 182.453 51.232H179.349C179.242 51.232 179.135 51.2747 179.029 51.36C178.943 51.4453 178.901 51.552 178.901 51.68V59.808C178.901 59.9147 178.943 60.0107 179.029 60.096C179.135 60.1813 179.242 60.224 179.349 60.224H182.453C182.559 60.224 182.655 60.1813 182.741 60.096C182.847 60.0107 182.901 59.9147 182.901 59.808ZM193.6 56.64C193.6 57.0453 193.451 57.3867 193.152 57.664C192.875 57.9413 192.533 58.08 192.128 58.08H191.264C190.859 58.08 190.507 57.9413 190.208 57.664C189.931 57.3867 189.792 57.0453 189.792 56.64V43.84C189.792 43.4133 189.931 43.0613 190.208 42.784C190.507 42.5067 190.859 42.368 191.264 42.368H192.128C192.533 42.368 192.875 42.5067 193.152 42.784C193.451 43.0613 193.6 43.4133 193.6 43.84V56.64ZM194.112 61.6C194.112 62.2613 193.867 62.8267 193.376 63.296C192.907 63.7653 192.352 64 191.712 64C191.051 64 190.475 63.7653 189.984 63.296C189.515 62.8267 189.28 62.2613 189.28 61.6C189.28 60.9387 189.515 60.3733 189.984 59.904C190.475 59.4347 191.051 59.2 191.712 59.2C192.352 59.2 192.907 59.4347 193.376 59.904C193.867 60.3733 194.112 60.9387 194.112 61.6Z" fill="white"/>
<defs>
<filter id="filter0_d_10_29" x="0" y="0" width="293" height="125" filterUnits="userSpaceOnUse" color-interpolation-filters="sRGB">
<feFlood flood-opacity="0" result="BackgroundImageFix"/>
<feColorMatrix in="SourceAlpha" type="matrix" values="0 0 0 0 0 0 0 0 0 0 0 0 0 0 0 0 0 0 127 0" result="hardAlpha"/>
<feOffset dy="12"/>
<feGaussianBlur stdDeviation="6"/>
<feComposite in2="hardAlpha" operator="out"/>
<feColorMatrix type="matrix" values="0 0 0 0 0 0 0 0 0 0 0 0 0 0 0 0 0 0 0.25 0"/>
<feBlend mode="normal" in2="BackgroundImageFix" result="effect1_dropShadow_10_29"/>
<feBlend mode="normal" in="SourceGraphic" in2="effect1_dropShadow_10_29" result="shape"/>
</filter>
<linearGradient id="paint0_linear_10_29" x1="146.5" y1="0" x2="146.5" y2="101" gradientUnits="userSpaceOnUse">
<stop stop-color="#6C2CC7"/>
<stop offset="0.753533" stop-color="#200C3D"/>
</linearGradient>
</defs>
</svg>
